<?xml version="1.0" standalone="no"?>
<!DOCTYPE svg PUBLIC "-//W3C//DTD SVG 1.1//EN" "http://www.w3.org/Graphics/SVG/1.1/DTD/svg11.dtd">
<svg width="182" height="50" version="1.1" xmlns="http://www.w3.org/2000/svg">
	<g id="bars" fill="black" stroke="none">
		<rect x="0" y="0" width="2" height="50" />
		<rect x="4" y="0" width="2" height="50" />
		<rect x="8" y="0" width="8" height="50" />
		<rect x="18" y="0" width="4" height="50" />
		<rect x="24" y="0" width="2" height="50" />
		<rect x="32" y="0" width="2" height="50" />
		<rect x="36" y="0" width="2" height="50" />
		<rect x="42" y="0" width="2" height="50" />
		<rect x="46" y="0" width="4" height="50" />
		<rect x="54" y="0" width="4" height="50" />
		<rect x="62" y="0" width="2" height="50" />
		<rect x="66" y="0" width="2" height="50" />
		<rect x="72" y="0" width="4" height="50" />
		<rect x="80" y="0" width="2" height="50" />
		<rect x="86" y="0" width="2" height="50" />
		<rect x="90" y="0" width="2" height="50" />
		<rect x="100" y="0" width="2" height="50" />
		<rect x="104" y="0" width="2" height="50" />
		<rect x="108" y="0" width="2" height="50" />
		<rect x="112" y="0" width="2" height="50" />
		<rect x="122" y="0" width="2" height="50" />
		<rect x="126" y="0" width="2" height="50" />
		<rect x="134" y="0" width="2" height="50" />
		<rect x="138" y="0" width="4" height="50" />
		<rect x="144" y="0" width="4" height="50" />
		<rect x="152" y="0" width="4" height="50" />
		<rect x="158" y="0" width="2" height="50" />
		<rect x="162" y="0" width="2" height="50" />
		<rect x="166" y="0" width="2" height="50" />
		<rect x="170" y="0" width="8" height="50" />
		<rect x="180" y="0" width="2" height="50" />
	</g>
</svg>
