<?xml version="1.0" standalone="no"?>
<!DOCTYPE svg PUBLIC "-//W3C//DTD SVG 1.1//EN" "http://www.w3.org/Graphics/SVG/1.1/DTD/svg11.dtd">
<svg width="168" height="50" version="1.1" xmlns="http://www.w3.org/2000/svg">
	<g id="bars" fill="black" stroke="none">
		<rect x="0" y="0" width="2" height="50" />
		<rect x="4" y="0" width="4" height="50" />
		<rect x="12" y="0" width="2" height="50" />
		<rect x="18" y="0" width="2" height="50" />
		<rect x="22" y="0" width="2" height="50" />
		<rect x="26" y="0" width="4" height="50" />
		<rect x="34" y="0" width="2" height="50" />
		<rect x="40" y="0" width="2" height="50" />
		<rect x="44" y="0" width="2" height="50" />
		<rect x="48" y="0" width="2" height="50" />
		<rect x="52" y="0" width="4" height="50" />
		<rect x="60" y="0" width="2" height="50" />
		<rect x="64" y="0" width="2" height="50" />
		<rect x="68" y="0" width="2" height="50" />
		<rect x="74" y="0" width="2" height="50" />
		<rect x="78" y="0" width="4" height="50" />
		<rect x="84" y="0" width="4" height="50" />
		<rect x="92" y="0" width="2" height="50" />
		<rect x="96" y="0" width="2" height="50" />
		<rect x="100" y="0" width="2" height="50" />
		<rect x="104" y="0" width="2" height="50" />
		<rect x="108" y="0" width="4" height="50" />
		<rect x="114" y="0" width="2" height="50" />
		<rect x="120" y="0" width="2" height="50" />
		<rect x="124" y="0" width="2" height="50" />
		<rect x="128" y="0" width="4" height="50" />
		<rect x="136" y="0" width="2" height="50" />
		<rect x="142" y="0" width="2" height="50" />
		<rect x="146" y="0" width="2" height="50" />
		<rect x="150" y="0" width="4" height="50" />
		<rect x="158" y="0" width="2" height="50" />
		<rect x="164" y="0" width="2" height="50" />
	</g>
</svg>
