<?xml version="1.0" standalone="no"?>
<!DOCTYPE svg PUBLIC "-//W3C//DTD SVG 1.1//EN" "http://www.w3.org/Graphics/SVG/1.1/DTD/svg11.dtd">
<svg width="268" height="50" version="1.1" xmlns="http://www.w3.org/2000/svg">
	<g id="bars" fill="black" stroke="none">
		<rect x="0" y="0" width="4" height="50" />
		<rect x="6" y="0" width="2" height="50" />
		<rect x="12" y="0" width="6" height="50" />
		<rect x="22" y="0" width="8" height="50" />
		<rect x="32" y="0" width="2" height="50" />
		<rect x="36" y="0" width="6" height="50" />
		<rect x="44" y="0" width="4" height="50" />
		<rect x="52" y="0" width="4" height="50" />
		<rect x="58" y="0" width="4" height="50" />
		<rect x="66" y="0" width="2" height="50" />
		<rect x="70" y="0" width="4" height="50" />
		<rect x="78" y="0" width="6" height="50" />
		<rect x="88" y="0" width="2" height="50" />
		<rect x="96" y="0" width="2" height="50" />
		<rect x="100" y="0" width="4" height="50" />
		<rect x="110" y="0" width="6" height="50" />
		<rect x="122" y="0" width="2" height="50" />
		<rect x="126" y="0" width="4" height="50" />
		<rect x="132" y="0" width="4" height="50" />
		<rect x="144" y="0" width="2" height="50" />
		<rect x="148" y="0" width="2" height="50" />
		<rect x="154" y="0" width="4" height="50" />
		<rect x="160" y="0" width="8" height="50" />
		<rect x="170" y="0" width="4" height="50" />
		<rect x="176" y="0" width="2" height="50" />
		<rect x="180" y="0" width="4" height="50" />
		<rect x="188" y="0" width="6" height="50" />
		<rect x="198" y="0" width="4" height="50" />
		<rect x="204" y="0" width="4" height="50" />
		<rect x="214" y="0" width="4" height="50" />
		<rect x="220" y="0" width="2" height="50" />
		<rect x="230" y="0" width="4" height="50" />
		<rect x="238" y="0" width="2" height="50" />
		<rect x="242" y="0" width="4" height="50" />
		<rect x="252" y="0" width="6" height="50" />
		<rect x="260" y="0" width="2" height="50" />
		<rect x="264" y="0" width="4" height="50" />
		<rect x="268" y="0" width="0" height="50" />
		<rect x="268" y="0" width="0" height="50" />
	</g>
</svg>
