<?xml version="1.0" standalone="no"?>
<!DOCTYPE svg PUBLIC "-//W3C//DTD SVG 1.1//EN" "http://www.w3.org/Graphics/SVG/1.1/DTD/svg11.dtd">
<svg width="284" height="50" version="1.1" xmlns="http://www.w3.org/2000/svg">
	<g id="bars" fill="black" stroke="none">
		<rect x="0" y="0" width="6" height="50" />
		<rect x="10" y="0" width="6" height="50" />
		<rect x="20" y="0" width="2" height="50" />
		<rect x="26" y="0" width="2" height="50" />
		<rect x="32" y="0" width="6" height="50" />
		<rect x="42" y="0" width="2" height="50" />
		<rect x="48" y="0" width="6" height="50" />
		<rect x="58" y="0" width="6" height="50" />
		<rect x="68" y="0" width="6" height="50" />
		<rect x="78" y="0" width="6" height="50" />
		<rect x="88" y="0" width="6" height="50" />
		<rect x="98" y="0" width="2" height="50" />
		<rect x="104" y="0" width="6" height="50" />
		<rect x="114" y="0" width="2" height="50" />
		<rect x="120" y="0" width="2" height="50" />
		<rect x="126" y="0" width="6" height="50" />
		<rect x="136" y="0" width="6" height="50" />
		<rect x="146" y="0" width="2" height="50" />
		<rect x="152" y="0" width="2" height="50" />
		<rect x="158" y="0" width="6" height="50" />
		<rect x="168" y="0" width="2" height="50" />
		<rect x="174" y="0" width="2" height="50" />
		<rect x="180" y="0" width="2" height="50" />
		<rect x="186" y="0" width="6" height="50" />
		<rect x="196" y="0" width="6" height="50" />
		<rect x="206" y="0" width="2" height="50" />
		<rect x="212" y="0" width="6" height="50" />
		<rect x="222" y="0" width="2" height="50" />
		<rect x="228" y="0" width="2" height="50" />
		<rect x="234" y="0" width="2" height="50" />
		<rect x="240" y="0" width="2" height="50" />
		<rect x="246" y="0" width="6" height="50" />
		<rect x="256" y="0" width="2" height="50" />
		<rect x="262" y="0" width="6" height="50" />
		<rect x="272" y="0" width="2" height="50" />
		<rect x="278" y="0" width="6" height="50" />
	</g>
</svg>
