<svg xmlns="http://www.w3.org/2000/svg" viewBox="0 0 300 300" width="100" height="100">
    <g>
        <path d="M243.3,78.2c2.3,0,4.5,0.1,6.7,0.3v22.2c-2.2-0.3-4.4-0.4-6.7-0.4c-24,0-44,17-48.8,39.6h40.6v20.5h-40.6c4.7,22.6,24.8,39.6,48.8,39.6c2.3,0,4.5-0.2,6.7-0.4v22.2c-2.2,0.2-4.4,0.3-6.7,0.3c-39.7,0-71.8-32.2-71.8-71.8C171.4,110.3,203.6,78.2,243.3,78.2z"/>
        <path d="M121.9,78.2c2.3,0,4.5,0.1,6.7,0.3v22.2c-2.2-0.3-4.4-0.4-6.7-0.4c-27.5,0-49.8,22.3-49.8,49.8c0,27.5,22.3,49.8,49.8,49.8c2.3,0,4.5-0.2,6.7-0.4v22.2c-2.2,0.2-4.4,0.3-6.7,0.3C82.2,221.8,50,189.7,50,150C50,110.3,82.2,78.2,121.9,78.2z"/>
    </g>
</svg>
