<svg xmlns="http://www.w3.org/2000/svg" width="100" height="100" viewBox="0 0 300 300">
    <path d="M88.5,144.7v37.2h-7.7v-37.2h-6.4v-6h6.4v-3.8c0-9.1,4-13.7,12.1-13.7c2.5,0,4.4,0.2,5.7,0.5v6.7
    c-1.5-0.3-3.1-0.4-4.6-0.4c-1.9,0-3.3,0.5-4.2,1.6c-0.9,1-1.4,2.9-1.4,5.4v3.7h8.2v6H88.5z"/>
    <path d="M110.3,181.9h-7.7v-59.7h7.7V181.9z"/>
    <path d="M131.8,181.9h-8.4v-8.4h8.4V181.9z"/>
    <path d="M162.4,137.7c6.2,0,11.1,2,14.8,5.9c3.7,3.9,5.5,9.5,5.5,16.7c0,7.2-1.8,12.7-5.5,16.7c-3.7,4-8.6,5.9-14.8,5.9
    c-6.1,0-11-2-14.7-5.9c-3.7-4-5.5-9.5-5.5-16.7c0-7.2,1.8-12.8,5.5-16.7C151.3,139.6,156.2,137.7,162.4,137.7z M162.4,176.9
    c3.7,0,6.6-1.4,8.9-4.2c2.3-2.8,3.4-6.9,3.4-12.4c0-5.5-1.1-9.7-3.4-12.4c-2.3-2.8-5.3-4.2-8.9-4.2c-3.7,0-6.6,1.4-8.9,4.2
    c-2.3,2.8-3.4,6.9-3.4,12.4c0,5.5,1.1,9.6,3.4,12.4C155.7,175.5,158.7,176.9,162.4,176.9z"/>
    <path d="M225.6,181.9h-38.3v-6.5l26.9-30.2h-25.3v-6.5h35.4v6.5l-26.9,30.2h28.3V181.9z"/>
</svg>
