<svg xmlns="http://www.w3.org/2000/svg" width="100" height="100" viewBox="0 0 300 300">
    <g fill="none" stroke="#1A1A18" stroke-width="2.8346" stroke-miterlimit="22.9256">
        <path d="M138.9,75.7C180.4,59.2,215,48.1,216.2,51c1.2,2.9-31.6,18.7-73.1,35.2c-41.5,16.6-76.1,27.6-77.3,24.7
      C64.6,108,97.3,92.3,138.9,75.7z"/>
        <path d="M234.3,142.6v98.3c0,3.1-36.2,9.6-81,9.6s-81-6.5-81-9.6v-98.3"/>
        <path d="M216.2,51c2.4,5.9,4.7,11.8,7.1,17.7c1.2,2.9-31.6,18.7-73.1,35.2c-41.5,16.6-76.1,27.6-77.3,24.7l-7.1-17.7"/>
        <ellipse cx="153.3" cy="142.6" rx="81" ry="5.6"/>
    </g>
</svg>
