<svg version="1.0" xmlns="http://www.w3.org/2000/svg"
 width="100" height="100" viewBox="0 0 407.000000 396.000000">

<g transform="translate(0.000000,396.000000) scale(0.100000,-0.100000)"
fill="#000000" stroke="none">
<path d="M1925 3943 c-435 -27 -843 -181 -1168 -441 -404 -322 -664 -783 -727
-1292 -15 -124 -12 -363 6 -491 58 -419 241 -787 541 -1092 170 -173 338 -294
547 -397 576 -281 1233 -282 1811 0 808 393 1243 1253 1075 2125 -149 770
-776 1389 -1572 1549 -116 24 -352 48 -428 44 -19 -1 -57 -3 -85 -5z m273
-484 c467 -50 885 -307 1134 -695 89 -139 175 -368 204 -542 20 -128 15 -395
-11 -511 -64 -287 -192 -519 -399 -726 -226 -226 -472 -359 -786 -426 -90 -20
-135 -23 -310 -23 -221 0 -305 12 -485 70 -450 144 -821 509 -964 951 -52 160
-66 250 -66 443 0 193 12 272 67 440 219 671 896 1098 1616 1019z"/>
<path d="M1875 2983 c-129 -18 -300 -83 -416 -158 -89 -58 -215 -177 -276
-263 -39 -54 -44 -65 -32 -76 20 -19 415 -246 428 -246 5 0 24 20 41 45 36 52
112 116 182 151 201 102 460 52 612 -117 50 -55 106 -159 106 -196 l0 -23
-245 0 -246 0 3 -122 3 -123 238 -3 c163 -2 237 -6 237 -13 0 -29 -68 -134
-119 -182 -105 -100 -220 -147 -361 -147 -158 0 -330 85 -411 204 -13 20 -27
36 -30 36 -13 0 -439 -252 -439 -260 0 -18 97 -139 159 -198 255 -246 641
-343 994 -252 354 92 633 366 729 715 32 116 32 374 0 490 -101 368 -418 657
-802 729 -76 15 -277 20 -355 9z"/>
</g>
</svg>
