<svg xmlns="http://www.w3.org/2000/svg" viewBox="0 0 300 300" width="100" height="100"> <g> <path d="M250.3,159.5c-0.6,1.9-0.9,3.9-1.7,5.7c-3.5,8-9.4,12.9-18.3,14c-1.5,0.2-3.1,0.3-4.7,0.3c-4.2,0-8.3,0-12.5,0 c-0.5,0-0.8-0.1-1.1-0.6c-8.2-14.2-16.4-28.4-24.6-42.6c-0.1-0.1-0.1-0.2-0.2-0.4c13.5-7.7,27.1-15.4,40.7-23.2 c0.1,0.2,0.3,0.4,0.4,0.6c6.3,10.9,12.6,21.7,18.9,32.6c1.5,2.5,2.5,5.3,2.9,8.2c0,0.1,0.1,0.3,0.1,0.4 C250.3,156.2,250.3,157.9,250.3,159.5z"></path> <path d="M181.3,168.1c0,5.6,0,11,0,16.4c0.3,0,0.4,0.1,0.6,0.1c15.1,0,30.3,0,45.4,0c5.6,0,10.7-1.4,15.3-4.7 c0.1-0.1,0.2-0.1,0.5-0.2c-0.6,1-1,1.8-1.5,2.6c-8.2,14.2-16.3,28.4-24.4,42.6c-2.5,4.4-6.2,6.4-11.1,6.4c-7.8,0-15.7,0-23.5,0 c-0.4,0-0.7,0-1.1,0c0,5.4,0,10.7,0,16c-0.1,0-0.1,0-0.2,0.1c-0.1-0.2-0.3-0.4-0.4-0.5c-7.7-12.8-15.3-25.6-23-38.4 c-0.3-0.4-0.3-0.7,0-1.2c7.7-12.8,15.4-25.7,23.1-38.6C180.9,168.5,181,168.4,181.3,168.1z"></path> <path d="M78.4,210.8c-0.2-0.4-0.4-0.6-0.5-0.8c-8.6-14.8-17.2-29.6-25.8-44.4c-2.4-4.1-2.3-8.1,0-12.2c4-7,8-14.1,12.1-21.1 c0.1-0.3,0.3-0.5,0.5-0.9c-4.7-2.7-9.3-5.3-14.1-8c0.3,0,0.4-0.1,0.6-0.1c14.9-0.3,29.9-0.5,44.8-0.8c0.8,0,1.2,0.3,1.5,0.9 c7.2,12.9,14.3,25.9,21.5,38.8c0.1,0.2,0.3,0.5,0.3,0.9c-4.7-2.7-9.4-5.4-14.2-8.1c-0.2,0.2-0.3,0.4-0.4,0.6 c-7.4,12.8-14.9,25.7-22.3,38.6c-2.7,4.7-4.3,9.8-4,15.3C78.3,209.9,78.4,210.3,78.4,210.8z"></path> <path d="M168.9,103.6c-0.3-0.6-0.6-1.1-0.9-1.6c-7.1-12.3-14.2-24.7-21.3-37c-3.6-6.3-6.4-9-12.9-12.5c0.3,0,0.6-0.1,0.8-0.1 c17.1,0,34.2,0,51.2,0c4.9,0,8.7,2,11.2,6.4c3.9,6.9,8,13.7,12,20.5c0.1,0.2,0.3,0.5,0.5,0.8c4.6-2.7,9.2-5.4,14-8.3 c-0.2,0.5-0.4,0.8-0.5,1c-7.2,12.9-14.4,25.8-21.6,38.7c-0.3,0.6-0.7,0.7-1.3,0.7c-14.7-0.2-29.4-0.4-44.1-0.6c-0.3,0-0.6,0-1-0.2 C159.6,108.9,164.2,106.2,168.9,103.6z"></path> <path d="M144.3,184.2c0,15.7,0,31.3,0,47c-0.3,0-0.6,0.1-0.9,0.1c-12.6,0-25.1,0-37.7,0c-11,0-20.1-7.6-22.1-18.4 c-0.8-4.4,0-8.7,1.6-12.8c0.5-1.3,1.1-2.7,1.8-3.9c2.1-3.8,4.3-7.6,6.4-11.4c0.2-0.4,0.5-0.6,1-0.6c16.4,0,32.8,0,49.2,0 C143.8,184.2,144.1,184.2,144.3,184.2z"></path> <path d="M123.9,122.3c-13.6-7.9-27.1-15.8-40.7-23.7c1.7-3,3.4-5.9,5.1-8.8c4.9-8.4,9.6-16.9,14.7-25.2c4.8-8,12.1-11.1,21.2-10.2 c7.5,0.7,13,4.8,16.9,11.1c2.6,4.2,5.1,8.5,7.7,12.8c0.4,0.6,0.1,0.9-0.2,1.3c-6.9,12-13.9,24-20.8,36c-1.1,2-2.3,3.9-3.4,5.9 C124.2,121.8,124,122,123.9,122.3z"></path> </g> </svg>