<svg xmlns="http://www.w3.org/2000/svg" viewBox="0 0 300 300" width="100" height="100"> <g> <path d="M150.5,148.1c-1.2,10.7-2.3,21.5-3.6,32.2c-1.7,14.2-3.5,28.5-5.4,42.7c-1.1,8.4-2.4,16.7-3.6,25.1 c-0.3,1.8-0.4,1.9-2.2,1.6c-15.9-2.3-31.8-4.6-47.7-7.1c-4.8-0.7-3.8,0.4-4.4-4.5c-1.5-11.9-2.8-23.8-4.3-35.7 c-1.6-13.2-3.2-26.4-4.8-39.6c-1.1-9.5-2.2-19.1-3.4-28.6c-0.2-1.4,0.1-1.6,1.4-1.1c10.1,4,20.6,6.6,31.3,8.5 c11.3,2,22.8,2.8,34.3,2.7c3.7,0,7.4-0.3,11.1-0.6c1.2-0.1,1.6,0.3,1.5,1.4C150.5,146.2,150.5,147.1,150.5,148.1 C150.4,148.1,150.5,148.1,150.5,148.1z M134.9,195.3C134.9,195.3,134.9,195.3,134.9,195.3c1.5,0.1,3,0.1,4.5,0.1 c0.9,0,1.4-0.4,1.5-1.2c0.4-3.7,0.9-7.3,1.3-11c0.1-0.8-0.2-1.2-1-1.2c-3.4-0.1-6.7-0.3-10.1-0.4c-0.9,0-1.5,0.3-1.5,1.3 c-0.3,3.6-0.5,7.3-0.8,10.9c-0.1,0.9,0.3,1.3,1.2,1.3C131.5,195,133.2,195.2,134.9,195.3z M113.2,153.1c0,1.4,0,2.9,0,4.3 c0,0.9,0.3,1.3,1.2,1.4c3.9,0.4,7.7,0.8,11.6,1.2c1,0.1,1.5-0.3,1.6-1.3c0.2-2.9,0.4-5.8,0.6-8.7c0.1-1-0.2-1.4-1.3-1.4 c-4.1-0.3-8.2-0.6-12.3-0.9c-1.1-0.1-1.5,0.4-1.4,1.4C113.3,150.3,113.2,151.7,113.2,153.1z M127,167.1 C127,167.1,127,167.1,127,167.1c0.1-0.5,0-1,0.1-1.4c0-0.8-0.2-1.2-1.1-1.3c-3.7-0.3-7.4-0.6-11-1c-1.3-0.1-1.7,0.4-1.7,1.6 c0,3.1,0,6.1,0,9.2c0,1,0.4,1.5,1.4,1.6c3.5,0.3,7,0.6,10.4,1c0.9,0.1,1.2-0.3,1.2-1.1C126.5,172.8,126.8,169.9,127,167.1z M138.3,148.5c0,0,0,0.1,0,0.1c-1.5,0-3.1,0.1-4.6,0c-1.3-0.1-1.8,0.4-1.9,1.7c-0.2,2.9-0.4,5.7-0.6,8.6c-0.1,1,0.3,1.5,1.3,1.5 c3.6,0.1,7.3,0.3,10.9,0.3c0.4,0,1.1-0.6,1.1-0.9c0.4-3.3,0.7-6.7,1-10c0.1-0.9-0.2-1.3-1.2-1.3 C142.3,148.6,140.3,148.5,138.3,148.5z M113.2,186.7C113.2,186.7,113.2,186.7,113.2,186.7c0,1.8,0,3.6,0,5.5c0,0.8,0.2,1.3,1.1,1.4 c3.1,0.3,6.3,0.6,9.4,1c0.8,0.1,1.1-0.3,1.2-1c0.3-3.7,0.6-7.4,0.8-11c0.1-0.8-0.3-1.2-1.1-1.3c-3.3-0.3-6.7-0.5-10-0.9 c-1.1-0.1-1.4,0.3-1.4,1.4C113.3,183.3,113.2,185,113.2,186.7z M138.6,177.5C138.6,177.5,138.6,177.5,138.6,177.5 c0.8,0,1.6,0,2.4,0.1c1.1,0.1,1.7-0.4,1.8-1.5c0.3-3.2,0.7-6.3,1-9.4c0.1-1-0.3-1.5-1.3-1.5c-3.5-0.1-7-0.2-10.5-0.4 c-0.9,0-1.3,0.3-1.3,1.1c-0.3,3.3-0.5,6.7-0.8,10c-0.1,1,0.4,1.3,1.4,1.3C133.8,177.3,136.2,177.4,138.6,177.5z M96,167.2 c0.1,1,0.2,2.7,0.2,4.4c0,0.9,0.4,1.4,1.3,1.5c3.4,0.5,6.7,1.1,10.1,1.7c1.1,0.2,1.6-0.2,1.6-1.4c0-3-0.1-5.9,0-8.9 c0-1.4-0.6-1.9-1.9-2.1c-3.5-0.5-6.9-1-10.4-1.6c-1.2-0.2-1.4,0.2-1.3,1.3C95.8,163.6,95.9,165,96,167.2z M94.8,149.9 C94.8,149.9,94.8,149.9,94.8,149.9c0.1,1.5,0.2,3,0.3,4.4c0,1,0.5,1.6,1.4,1.7c3.8,0.6,7.6,1.3,11.3,1.9c0.9,0.1,1.3-0.2,1.3-1.2 c0-2.8,0-5.7,0-8.5c0-1.1-0.6-1.5-1.6-1.6c-3.9-0.6-7.7-1.3-11.6-2c-1.1-0.2-1.5,0.1-1.4,1.2C94.7,147.2,94.8,148.6,94.8,149.9z M76.8,139.4c-0.1,0.3-0.2,0.6-0.2,0.9c0.4,3.4,0.8,6.9,1.3,10.3c0.1,0.4,0.5,0.9,0.8,1c3.8,1.1,7.7,2.1,11.5,3.1 c0.7,0.2,1.2-0.1,1.1-1c-0.2-3.1-0.3-6.1-0.6-9.2c0-0.4-0.5-1.1-0.9-1.2C85.6,142,81.3,140.7,76.8,139.4z M109.2,186.3 C109.2,186.3,109.2,186.3,109.2,186.3c0-1.5-0.1-3.1,0-4.6c0.1-1.5-0.4-2.1-2-2.3c-3.1-0.4-6.2-0.9-9.2-1.5c-1-0.2-1.3,0.2-1.3,1.1 c0.2,3.5,0.4,7,0.7,10.5c0.1,1,0.5,1.4,1.5,1.5c2.9,0.5,5.9,1,8.8,1.5c1.1,0.2,1.5-0.2,1.5-1.3C109.2,189.7,109.2,188,109.2,186.3z M78.8,156.4c0,0.5,0,0.9,0,1.3c0.4,3.4,0.8,6.8,1.4,10.1c0.1,0.5,0.7,1.1,1.2,1.3c3.2,0.9,6.5,1.7,9.7,2.6c1.1,0.3,1.5,0,1.4-1.1 c-0.2-3.2-0.4-6.4-0.7-9.6c0-0.5-0.5-1.1-0.9-1.3C87,158.5,83,157.5,78.8,156.4z M81,173.9c0,0.8,0,1.5,0.1,2.1 c0.4,3.1,0.8,6.3,1.2,9.4c0.1,1.2,0.6,1.8,1.8,2.1c2.7,0.7,5.5,1.4,8.2,2.1c1.1,0.3,1.4-0.1,1.3-1.1c-0.2-3.4-0.4-6.8-0.7-10.2 c0-0.5-0.5-1.3-0.9-1.4C88.5,175.8,84.9,174.9,81,173.9z M134.1,199.6c0-0.1,0-0.2,0-0.3c-1.4,0-2.8,0.2-4.2,0 c-1.4-0.2-1.8,0.4-1.9,1.6c-0.2,3.1-0.4,6.2-0.7,9.3c-0.1,1.1,0.4,1.5,1.4,1.5c2.9,0.1,5.7,0.1,8.6,0.2c0.8,0,1.2-0.3,1.3-1.2 c0.4-3.2,0.8-6.5,1.3-9.7c0.1-1-0.2-1.5-1.2-1.4C137.2,199.7,135.7,199.6,134.1,199.6z M131.7,228.9 C131.7,229,131.7,229,131.7,228.9c1,0.1,2,0.2,3,0.2c0.9,0,1.5-0.3,1.6-1.2c0.5-3.5,0.9-6.9,1.4-10.4c0.1-0.9-0.2-1.4-1.1-1.4 c-2.8-0.2-5.6-0.3-8.3-0.5c-0.9-0.1-1.2,0.3-1.3,1.1c-0.3,3.7-0.6,7.4-0.8,11c-0.1,0.8,0.2,1.3,1.1,1.2 C128.8,228.9,130.2,228.9,131.7,228.9z M113.2,204.2c0,1.5,0,3.1,0,4.6c0,1.1,0.4,1.7,1.5,1.8c2.5,0.2,5,0.5,7.4,0.8 c1,0.1,1.5-0.3,1.6-1.3c0.2-3.1,0.5-6.2,0.7-9.3c0.1-1.2-0.4-1.7-1.5-1.7c-2.8-0.2-5.5-0.4-8.3-0.7c-1.1-0.1-1.5,0.3-1.4,1.4 C113.3,201.1,113.2,202.7,113.2,204.2z M109.2,203.8C109.2,203.8,109.2,203.8,109.2,203.8c0-1.4-0.1-2.9,0-4.3 c0.1-1.3-0.5-1.9-1.8-2.1c-2.8-0.4-5.6-0.8-8.4-1.3c-1-0.2-1.3,0.2-1.2,1c0.2,3.2,0.4,6.4,0.7,9.6c0.1,0.9,0.5,1.4,1.4,1.5 c2.6,0.4,5.2,0.8,7.8,1.3c1.1,0.2,1.5-0.1,1.5-1.2C109.2,206.8,109.2,205.3,109.2,203.8z M109.2,220.7c0-1.8,0-3.5,0-5.3 c0-1-0.4-1.5-1.4-1.6c-2.5-0.3-5-0.6-7.6-1c-0.9-0.1-1.3,0.3-1.2,1.1c0.2,3.6,0.4,7.3,0.7,10.9c0,0.5,0.7,1.1,1.2,1.2 c2.2,0.5,4.4,0.8,6.6,1.2c1.3,0.2,1.6-0.3,1.6-1.4C109.2,224,109.2,222.4,109.2,220.7z M113.2,221.1 C113.2,221.1,113.2,221.1,113.2,221.1c0,1.8,0,3.6,0,5.5c0,0.8,0.2,1.4,1.2,1.4c2.3,0.2,4.6,0.5,6.9,0.6c0.4,0,1.1-0.6,1.2-1 c0.4-3.7,0.6-7.3,0.9-11c0.1-1-0.3-1.3-1.3-1.4c-2.4-0.1-4.9-0.4-7.3-0.7c-1.2-0.1-1.5,0.3-1.5,1.4 C113.3,217.6,113.2,219.3,113.2,221.1z M94.6,204.6c-0.2-2.7-0.4-5.4-0.6-8.2c-0.1-1-0.4-1.4-1.4-1.6c-2.6-0.6-5.2-1.3-7.8-2.1 c-1.6-0.5-1.8-0.4-1.6,1.2c0.4,3.2,0.7,6.4,1.2,9.5c0.1,0.5,0.7,1.3,1.2,1.4c2.1,0.7,4.2,1.2,6.4,1.7 C94.8,207.3,94.8,207.3,94.6,204.6z M85.6,209.8c-0.1,0.5-0.2,0.8-0.1,1.1c0.4,3.6,0.8,7.1,1.3,10.7c0.1,0.5,0.7,1.1,1.1,1.3 c2.2,0.7,4.4,1.2,6.7,1.8c0.8,0.2,1.2-0.1,1.1-1c-0.2-3.5-0.5-7.1-0.8-10.6c0-0.5-0.5-1.2-0.8-1.3C91.4,211,88.6,210.5,85.6,209.8z M125.1,242.5c-0.2,1.8-0.2,1.9,1.6,2.2c1.9,0.4,3.9,0.6,5.8,1.1c0.9,0.2,1.2-0.2,1.3-1c0.5-3.4,1-6.7,1.5-10.1 c0.1-0.9-0.2-1.3-1.1-1.4c-2.3-0.1-4.7-0.2-7-0.5c-1.1-0.1-1.4,0.4-1.5,1.4C125.5,237,125.3,239.7,125.1,242.5z M113.2,237.1 c0,1.3,0,2.6,0,3.9c0,0.9,0.3,1.4,1.2,1.6c1.9,0.3,3.8,0.7,5.7,1c0.4,0,1.1-0.5,1.1-0.8c0.3-3,0.5-6,0.8-9c0.1-0.8-0.3-1.2-1.2-1.3 c-2-0.2-4.1-0.4-6.1-0.7c-1.2-0.2-1.5,0.4-1.5,1.4C113.3,234.5,113.2,235.8,113.2,237.1z M109.2,236.3 C109.2,236.3,109.2,236.3,109.2,236.3c0-1.2,0-2.4,0-3.6c0-1.1-0.4-1.6-1.4-1.7c-2.1-0.3-4.3-0.6-6.4-1c-1.1-0.2-1.4,0.3-1.3,1.2 c0.2,2.5,0.4,5,0.5,7.4c0.1,1,0.5,1.5,1.4,1.6c1.9,0.3,3.9,0.7,5.8,1c1,0.2,1.4-0.2,1.4-1.2C109.2,238.9,109.2,237.6,109.2,236.3z M87.8,226.8c-0.1,0.2-0.2,0.3-0.2,0.4c0.4,3.3,0.8,6.6,1.3,9.9c0.1,0.4,0.6,0.8,0.9,0.9c1.9,0.4,3.8,0.7,5.6,1 c0.8,0.1,1.3-0.2,1.2-1.1c-0.2-2.7-0.3-5.3-0.6-8c0-0.5-0.6-1.1-1-1.3C92.7,228.1,90.3,227.5,87.8,226.8z"></path> <path d="M222.3,235.5c-5.7-19.2-11.3-38.4-17-57.6c-0.1,0-0.3-0.1-0.4-0.1c-15,23.4-29.9,46.8-44.9,70.2c-0.1-0.1-0.3-0.1-0.4-0.2 c0.5-2,0.9-3.9,1.4-5.9c1.1-4.7,2.3-9.4,3.5-14.1c1.7-6.7,3.3-13.5,4.9-20.3c1.8-7.3,3.5-14.5,5.3-21.8c2.1-8.9,4.3-17.7,6.5-26.6 c1.1-4.4,2.2-8.8,3.1-13.3c0.3-1.5,1-2.3,2.7-2.7c13-2.7,25.9-5.6,38.8-8.4c3.1-0.7,3.1-0.7,2.9,2.5c-1,17-2,33.9-3,50.9 c-0.7,11.3-1.3,22.6-1.9,33.9c-0.2,4.3-0.5,8.5-0.8,12.8c0,0.2-0.1,0.4-0.1,0.5C222.7,235.4,222.5,235.4,222.3,235.5z"></path> <path d="M97.1,78.6c0.4,0,0.8,0,1.2,0.1c9.6,2.2,19.2,3.8,29,4.6c11.6,0.9,23.2,1.5,34.8,1.9c13.8,0.5,27.5-0.2,41.3-1.3 c1-0.1,1.6,0.2,2.1,1.1c7.6,14.3,15.2,28.5,22.9,42.7c0.8,1.5,0.7,1.7-1,2c-13.6,2.7-27.1,5.4-40.7,8c-2.3,0.4-2.3,0.4-3-1.8 c-2.6-7.8-5.5-15.5-7.8-23.3c-1-3.3-2.9-4.7-5.9-5.8c-16.2-6.1-32.4-12.3-48.6-18.4c-7.7-2.9-15.3-5.8-23-8.8 c-0.5-0.2-0.9-0.4-1.4-0.6C97,78.9,97.1,78.8,97.1,78.6z"></path> <path d="M120.6,131.2c-0.3-0.1-0.5-0.2-0.7-0.3c-3.3-1.4-6.8-1.7-10.3-1.5c-3.2,0.2-6.4,0.6-9.5,1.4c-4.8,1.3-8.9,0-12.3-3.2 c-2.1-1.9-3.8-4.3-5.7-6.5c-0.6-0.7-0.7-1.3,0.5-1.5c5.6-0.9,9.4-4.5,12.7-8.8c2.2-2.8,4.1-5.9,6.2-8.8c0.2-0.3,1-0.5,1.2-0.4 c2.8,2.7,6.4,3.9,10,4.9c7.1,2,14.4,2.9,21.7,3.4c0.3,0,0.7,0.1,1,0.1c2.7,0.3,2.8,0.4,1.3,2.7c-1.5,2.4-3.1,4.7-4.8,6.9 c-1.1,1.5-2.7,2.4-4.6,2.8c-2.5,0.5-3.7,2.5-4.7,4.7c-0.5,1.1-0.9,2.2-1.4,3.3C121.1,130.7,120.8,131,120.6,131.2z"></path> <path d="M181.3,81.4c-8.6,0-15.7-7.2-15.7-15.7c0-8.7,7.2-15.9,15.9-15.9c8.6,0,15.9,7.4,15.8,16.1 C197.1,74.5,189.9,81.5,181.3,81.4z"></path> </g> </svg>