<svg xmlns="http://www.w3.org/2000/svg" viewBox="0 0 300 300" width="100" height="100"> <g> <path d="M250.1,149.9c0,55.2-44.8,100-100,99.9c-55.5,0-100.2-44.8-100-100.5c0.2-54.9,44.9-99.4,100-99.4 C205.4,50,250.1,94.7,250.1,149.9z M149.7,217.3c4.2-0.7,8.2-1.3,12.1-2.1c15.9-3.5,29.6-11,40.7-22.8 c14.7-15.7,22.1-34.5,23.5-55.8c0.6-9.7-0.4-19.4-3.1-28.8c-4.4-15.6-12.7-28.8-25.3-39c-8.5-6.9-18.1-11.7-28.6-14.6 c-4-1.1-8.1-2.1-12.2-2.7c-5.6-0.7-11.2-0.4-16.9,0.2c-16.3,1.7-31.4,6.9-44.9,16.2C70.1,85,55.6,108.8,51.9,139 c-1.6,13.2-0.5,26.3,3.4,39c8.1,26.4,24.4,46.1,48.6,59.3c0.2,0.1,0.5,0.2,0.7,0.3c0-0.2-0.2-0.3-0.3-0.4 c-15.7-10.1-25.3-24.6-30.5-42.3c-2.1-7.1-3.2-14.5-3.7-21.9c-0.4-6.2-0.2-12.4,1-18.5c2.6-13.1,7.9-24.9,15.8-35.7 c8.4-11.4,19-20.3,32-26c9.3-4,19-6,29.1-6.2c0.5,0,0.9-0.1,1.5-0.1c0-8.6,0-17.1,0-25.7c1,0.4,1.9,0.6,2.6,1 c2.8,1.6,5.6,3.1,8.2,4.9c8.8,6.3,16.5,13.9,23.4,22.2c4.5,5.4,8.5,11,11.5,17.4c1.8,3.8,2.3,7.4,0.4,11.2c-1.8,3.4-3.4,6.8-5.5,10 c-5.9,8.9-13.2,16.6-21.2,23.7c-5.1,4.5-10.3,8.7-16.4,11.8c-1.2,0.6-2.4,1.1-3.8,1.7c0-9.3,0-18.4,0-27.7c-2,1.1-3.9,2-5.7,3 c-11.2,6.4-20.8,14.8-29.1,24.7c-6.5,7.7-11.7,16.2-14.9,25.8c-0.3,0.9-0.3,1.6,0,2.5c2.9,7.9,7.2,15.1,12.4,21.6 c10.1,12.5,22.4,22.3,36.5,29.9c0.4,0.2,0.8,0.4,1.4,0.6C149.7,235.7,149.7,226.5,149.7,217.3z"></path> </g> </svg>