<svg xmlns="http://www.w3.org/2000/svg" viewBox="0 0 300 300" width="100" height="100"> <g> <path d="M249.8,150c0,26.4,0.1,52.8,0,79.1c0,11-8.7,20-19.8,20.4c-11.4,0.4-22.8,0.3-34.2,0.2c-41.1,0-82.3-0.3-123.4-0.1 c-12.1,0.1-22.5-8.9-22.4-22.5c0.1-16.6,0-33.1,0-49.7c0-34.8,0.1-69.6,0.1-104.4c0-4.9,0.6-9.5,3.4-13.6C58,53,64.2,49.9,72,49.9 c8.5,0,17.1,0,25.6,0c43.2,0,86.3,0,129.5,0c13.9,0,22.8,8.8,22.8,22.8c0,12.9,0.1,25.8,0.1,38.7c0,12.9,0,25.8,0,38.7 C250,150,249.9,150,249.8,150z M243.5,150.2c0,0,0.1,0,0.1,0c0-15.4,0-30.8,0-46.2c0-10.8,0-21.6-0.1-32.4c0-5.5-2.2-9.9-6.8-13 c-3-2-6.3-2.3-9.8-2.3c-34.7,0-69.5-0.1-104.2-0.1c-16.7,0-33.5,0.1-50.2,0c-8.9,0-16.1,6.1-16.1,16c0.2,51.5,0,103.1,0,154.6 c0,1.4,0,2.9,0.3,4.3c1.4,7.4,7.2,12.1,14.6,12.2c37.3,0,74.6,0.1,111.9,0.1c15.1,0,30.2,0,45.3-0.1c9.1,0,15-7.5,15-15 C243.4,202.3,243.5,176.2,243.5,150.2z"></path> <path d="M169.8,90.4c-24,0-47.9,0-71.9,0c0,0.6-0.1,1.2-0.1,1.7c0,12.6,0,25.2,0.1,37.8c0.1,12.8,8.1,23.1,20.6,25.9 c3.2,0.7,6.6,0.5,9.9,0.7c0.6,0,1.3,0,2.2,0c0,1.2,0,2.4,0,3.5c0,8,0.1,15.9,0,23.9c-0.3,17-14.5,31.4-31.2,31.8 c-0.4,0-0.8,0-1.4,0c0-2.2,0-4.3,0-6.4c1.9-0.3,3.8-0.5,5.7-0.9c11.7-2.6,20.1-12.9,20.3-24.9c0.1-6.7,0-13.5,0-20.3 c-2-0.3-4-0.4-6-0.8c-15.5-3.1-26.5-16-26.6-31.8c-0.1-15.2,0-30.3,0.1-45.5c0-0.4,0.1-0.8,0.1-1.2c28.3,0,56.5,0,84.9,0 c0,0.8,0,1.6,0,2.3c0,14.6,0.1,29.3,0.1,43.9c0,14.7-9.5,27.5-23.6,31.5c-2.9,0.8-5.9,1.1-9.1,1.7c0,0.4,0,1,0,1.6 c0,5.9,0,11.9,0,17.8c0.1,14.2,10.8,25.5,25,26.3c0.3,0,0.6,0,1,0.1c0,2.1,0,4.2,0,6.7c-2.5-0.3-5-0.5-7.4-1 c-14.6-3.4-25.1-16.4-25.2-31.4c-0.1-8.6,0-17.2,0-25.8c0-0.3,0-0.7,0.1-1.2c2.1,0,4.1,0,6.1,0c14.2,0.2,26.2-11.1,26.4-25.3 c0.3-13.3,0.1-26.6,0.1-39.9C169.9,91.1,169.8,90.8,169.8,90.4z"></path> <path d="M189.5,130.4c1,0,1.8,0,2.7,0c6,0,10-4,10-10.1c0-11.4,0-22.8,0-34.2c0-0.6,0-1.3,0-2.1c2.1,0,4.2,0,6.4,0 c0,0.5,0.1,1.1,0.1,1.6c0,11.4,0,22.8,0,34.2c0,8.3-3.9,13.8-11.8,16.5c-1.2,0.4-1,1.2-1,2c0,10,0,20,0,30c0,15,0,30,0,45 c0,0.7,0,1.5,0,2.4c-2.2,0-4.3,0-6.4,0C189.5,187.3,189.5,158.9,189.5,130.4z"></path> <path d="M187.3,84c0,12.3,0,24.5,0,36.8c-2.1,0-4.2,0-6.3,0c0-12.2,0-24.4,0-36.8C183,84,185.1,84,187.3,84z"></path> <path d="M191.8,84c2.1,0,4.2,0,6.3,0c0,12.3,0,24.5,0,36.8c-2.1,0-4.1,0-6.3,0C191.8,108.6,191.8,96.4,191.8,84z"></path> </g> </svg>