<svg xmlns="http://www.w3.org/2000/svg" viewBox="0 0 300 300" width="100" height="100">
    <g>
        <path d="M217.2,181.9c2.7-0.2,5.2-0.9,7.5-2c2.9-1.4,5.4-3.4,7.5-6.1s3.7-6.1,4.9-10.1c1.1-4,1.7-8.7,1.7-14.1c0-3.3-0.3-6.5-0.9-9.5c-0.6-3.1-1.5-5.9-2.7-8.5c-1.2-2.6-2.7-4.9-4.6-6.8c-1.8-1.9-4-3.5-6.4-4.5c-2.1-0.9-4.4-1.5-7-1.6v9.8c1,0.2,1.9,0.5,2.8,1c1.3,0.8,2.4,1.9,3.4,3.2c1,1.4,1.7,3,2.4,4.8c0.6,1.8,1.1,3.8,1.4,5.9c0.3,2.1,0.5,4.3,0.5,6.6c0,3.1-0.3,6-0.8,8.7c-0.5,2.7-1.3,5-2.3,7.1c-1,2-2.3,3.6-3.8,4.7c-1.1,0.8-2.2,1.3-3.5,1.6V181.9zM213.6,118.8c-2,0.2-3.9,0.7-5.7,1.4c-2.4,1-4.6,2.5-6.6,4.4c-1.9,1.9-3.6,4.2-4.9,6.8c-1.3,2.6-2.4,5.6-3.1,8.8c-0.7,3.2-1.1,6.7-1.1,10.4c0,3.6,0.3,7,1,10.1c0.7,3.2,1.6,6,2.9,8.6c1.3,2.6,2.8,4.8,4.7,6.7c1.9,1.9,4,3.3,6.4,4.4c2,0.8,4.1,1.3,6.4,1.5v-9.8c-1.2-0.3-2.3-0.8-3.2-1.5c-1.5-1.1-2.8-2.7-3.8-4.7c-1-2-1.8-4.3-2.3-7c-0.5-2.7-0.8-5.5-0.8-8.5c0-2.3,0.2-4.5,0.5-6.6c0.3-2.1,0.8-4.1,1.4-6c0.6-1.9,1.4-3.5,2.4-4.9c1-1.4,2.1-2.5,3.4-3.3c0.8-0.5,1.6-0.8,2.4-1V118.8zM150.6,119.7v10.2h13.7v51.2H175v-51.2h13.7v-10.2H150.6zM125.6,181.9c2.6-0.2,5-0.9,7.2-1.9c2.9-1.4,5.4-3.4,7.5-6.1c2.1-2.7,3.7-6.1,4.9-10.1c1.1-4,1.7-8.7,1.7-14.1c0-3.3-0.3-6.5-0.9-9.5c-0.6-3.1-1.5-5.9-2.7-8.5c-1.2-2.6-2.7-4.9-4.6-6.8c-1.8-1.9-4-3.5-6.4-4.5c-2-0.9-4.3-1.4-6.7-1.6v9.8c0.9,0.2,1.7,0.5,2.5,1c1.3,0.8,2.4,1.9,3.4,3.2c1,1.4,1.7,3,2.4,4.8c0.6,1.8,1.1,3.8,1.4,5.9c0.3,2.1,0.5,4.3,0.5,6.6c0,3.1-0.3,6-0.8,8.7c-0.5,2.7-1.3,5-2.3,7.1c-1,2-2.3,3.6-3.8,4.7c-1,0.7-2.1,1.3-3.3,1.5V181.9zM122,118.8c-2.1,0.2-4.1,0.7-6,1.4c-2.4,1-4.6,2.5-6.6,4.4c-1.9,1.9-3.6,4.2-4.9,6.8c-1.3,2.6-2.4,5.6-3.1,8.8c-0.7,3.2-1.1,6.7-1.1,10.4c0,3.6,0.3,7,1,10.1c0.7,3.2,1.6,6,2.9,8.6c1.3,2.6,2.8,4.8,4.7,6.7c1.9,1.9,4,3.3,6.4,4.4c2,0.9,4.2,1.4,6.6,1.5v-9.8c-1.3-0.2-2.4-0.8-3.5-1.6c-1.5-1.1-2.8-2.7-3.8-4.7c-1-2-1.8-4.3-2.3-7c-0.5-2.7-0.8-5.5-0.8-8.5c0-2.3,0.2-4.5,0.5-6.6c0.3-2.1,0.8-4.1,1.4-6c0.6-1.9,1.4-3.5,2.4-4.9c1-1.4,2.1-2.5,3.4-3.3c0.8-0.5,1.7-0.8,2.7-1V118.8zM78.8,129.6h15.3v-9.9H78.8V129.6zM78.8,155.5h14v-9.7h-14V155.5zM75,155.5h0.1l0.1-9.7H75v-16.2h0.1v-9.9H64.3v61.5H75V155.5z"/>
        <g>
            <rect x="50" y="88.9" width="14" height="18.8"/>
            <rect x="76.6" y="88.9" width="14" height="18.8"/>
            <rect x="103.1" y="88.9" width="14" height="18.8"/>
            <rect x="129.7" y="88.9" width="14" height="18.8"/>
            <rect x="156.3" y="88.9" width="14" height="18.8"/>
            <rect x="182.9" y="88.9" width="14" height="18.8"/>
            <rect x="209.4" y="88.9" width="14" height="18.8"/>
            <rect x="236" y="88.9" width="14" height="18.8"/>
            <rect x="50" y="192.1" width="14" height="18.8"/>
            <rect x="76.6" y="192.1" width="14" height="18.8"/>
            <rect x="103.1" y="192.1" width="14" height="18.8"/>
            <rect x="129.7" y="192.1" width="14" height="18.8"/>
            <rect x="156.3" y="192.1" width="14" height="18.8"/>
            <rect x="182.9" y="192.1" width="14" height="18.8"/>
            <rect x="209.4" y="192.1" width="14" height="18.8"/>
            <rect x="236" y="192.1" width="14" height="18.8"/>
        </g>
    </g>
</svg>
