<svg xmlns="http://www.w3.org/2000/svg" viewBox="0 0 300 300" width="100" height="100">
    <path d="M155.8,161.2c4.2,2,6.6,5.3,8.5,9.2c2.9-6.3,7.2-10.5,14.1-10.5c7-0.1,11.4,4.1,14.2,10.1c6.4-13.2,22.3-13.7,28.5-0.7
    c0-0.6,0-0.9,0-1.2c-0.3-7.9-1.6-15.7-4.6-23c-10.5-25.4-29.3-40.6-56.5-45.2c-3.9-0.6-3.9-0.6-4.2-4.4c0-0.5-0.5-1.3-0.8-1.3
    c-3.5-0.1-7-0.1-10.6-0.1c0,1.4-0.1,2.4,0,3.5c0.1,1.4-0.4,1.8-1.8,2c-2.3,0.2-4.5,0.5-6.7,1c-30.2,7.4-48.9,26.3-55.7,56.6
    c-0.9,3.8-1,7.8-1.4,11.7c7.1-13,22-11.9,28.7,1.4c3-5.9,7-10.4,14.2-10.5c7.1,0,11.1,4.5,14.2,10.5c1.8-4.1,4.3-7.4,8.5-9.4
    c0,0.8,0.1,1.3,0.1,1.8c0,20.8,0,41.6,0,62.4c0,1.5-0.2,2.9-0.5,4.4c-1,4.8-4.2,8.2-8,8.8c-4.8,0.7-9-2.6-10.3-8.2
    c-0.4-1.6-0.5-3.3-0.8-5.1c-3.9,0-7.8,0-12.2,0c0.5,2.9,0.7,5.8,1.4,8.5c2.6,9.7,10.8,16.2,20.3,16.2c9.4,0,17.4-6.1,20.1-15.9
    c0.9-3.3,1.2-6.8,1.3-10.3c0.1-19.9,0.1-39.9,0.1-59.8C155.8,163.1,155.8,162.4,155.8,161.2z"/>
    <path d="M164.1,74c-2.6,1.7-5.7,3.7-8.8,5.7c-2,1.3-3.1,3.1-2.7,5.5c0.5,3,3.1,5,6,4.7c2.9-0.2,4.9-2.4,5-5.5C163.7,80.9,163.9,77.2,164.1,74z"/>
    <path d="M185.7,86.7c-2.8,1.8-5.9,3.8-9,5.8c-2.5,1.6-3.3,4.2-2.2,6.7c1,2.3,3.6,3.8,6,3.4c2.8-0.5,4.5-2.5,4.6-5.4C185.4,93.6,185.5,89.9,185.7,86.7z"/>
    <path d="M200.8,64.4c-2.8,1.8-5.9,3.8-9,5.8c-2.4,1.6-3.2,4.1-2.2,6.6c0.9,2.4,3.5,3.9,5.9,3.5c2.7-0.4,4.6-2.3,4.7-5.1C200.5,71.4,200.7,67.7,200.8,64.4z"/>
    <path d="M133.6,80.3c-2.7,1.8-5.8,3.7-8.8,5.7c-2.3,1.5-3.2,3.6-2.6,5.9c0.7,2.7,3.1,4.5,5.7,4.3c2.9-0.2,4.9-2.3,5.1-5.4C133.3,87.3,133.5,83.6,133.6,80.3z"/>
    <path d="M215.4,86.7c-2.6,1.7-5.7,3.7-8.8,5.8c-2.5,1.6-3.4,4.1-2.4,6.7c0.9,2.4,3.6,4,6.1,3.5c2.8-0.5,4.5-2.5,4.6-5.6C215,93.4,215.2,89.8,215.4,86.7z"/>
    <path d="M180,49.9c-2.7,1.8-5.8,3.7-8.8,5.7c-2.2,1.4-3.1,3.5-2.6,5.7c0.6,2.8,3.1,4.7,5.8,4.5c2.9-0.2,5-2.2,5.2-5.3C179.7,56.8,179.9,53.2,180,49.9z"/>
</svg>
