<svg xmlns="http://www.w3.org/2000/svg" width="100" height="100" viewBox="0 0 300 300">
    <path d="M195.9,115.6h15.3V95.5l42.3-41.6l-4.5-4.5l-42.7,42H198l0.5-5.6c1,0.4,2.1,0.7,3.2,0.7c4.3,0,7.8-3.5,7.8-7.8
    s-3.5-7.8-7.8-7.8c-1.9,0-3.6,0.7-4.9,1.8c-7.7-5.2-16.7-8.9-26.3-10.9v-3.4h-30.9v3c-5.1,0.9-10,2.3-14.6,4.1V64h-10.4v6.5
    c-4.1,2.4-8,5.3-11.4,8.5l0.5,0.6h-0.5h-6V86h6.5l1.6,18.8L51.1,46.9l-4.6,4.3l59.9,63.6l5.9,69.2l-65.7,64.7l4.5,4.5l62-61
    l2.6,30.8h2.1v7.7H129v-7.7h40.9c3,5.1,8.6,8.6,15,8.6c8.9,0,16.2-6.7,17.2-15.3l34.2,36.3l4.6-4.4l-52-55.2L195.9,115.6z
    M189.4,117l-6.3,69.9l-31.1-33L189.4,117z M204.9,109.2h-7.6l7.6-7.4V109.2z M200,97.7l-2.6,2.6l0.2-2.6H200z
    M146,66.8c2.6-0.3,5.3-0.4,8-0.4c3.4,0,6.8,0.2,10.2,0.7v1.5H146V66.8z
    M139.7,67.8V75h30.9v-6.8c8.6,1.9,16.6,5.4,23.5,10.1c0,0.1,0,0.2,0,0.3c0,0.3,0,0.5,0,0.8H125v-7.1
    C129.6,70.3,134.6,68.8,139.7,67.8z
    M114.7,79.4h-2.1c0.7-0.5,1.4-1,2.1-1.5V79.4z
    M110.3,85.8h1h80.9l-0.5,5.5h-2.3v16.8l-13.2,13v-6.2h-36.3v11.8h30.7l-23,22.7l-35.1-37.2L110.3,85.8z
    M113.4,122.3l29.7,31.5l-24.9,24.4L113.4,122.3z
    M167.4,214.3c0,0.8,0.1,1.6,0.2,2.4h-46.2l-2.6-30.2l28.5-28.1l34.9,37l-0.2,1.8
    C173.8,198.5,167.4,205.6,167.4,214.3z
    M184.8,223.7c-5.2,0-9.3-4.2-9.3-9.3c0-5.2,4.2-9.3,9.3-9.3c5.2,0,9.3,4.2,9.3,9.3S189.9,223.7,184.8,223.7z"/>
    <circle cx="184.8" cy="214.3" r="6.9"/>
</svg>
