<svg xmlns="http://www.w3.org/2000/svg" viewBox="0 0 300 300" width="100" height="100">
    <g fill-rule="evenodd" clip-rule="evenodd" fill="black" font-family="Arial, sans-serif" font-weight="bold">
        <path d="M169.4,152.6h51.2v-5.2h-52.5l-51.5,50.2H79.5v5.2h38.8l15.9-15.6v41.7c-1.7,2.2-2.8,5-2.8,8c0,7.1,5.8,13,13,13c7.1,0,13-5.8,13-13c0-2.9-1-5.7-2.5-7.8l0.1-62.2h-0.1L169.4,152.6z"/>
        <path d="M153.9,60.6l0,97.8h-6.8l0-97.9c0-2-1.5-3.9-3.4-3.9c-1.8,0-3.4,1.8-3.4,3.9l0,111.4h-6.8l0-111.3c0-5.8,4.6-10.7,10.1-10.7C149.4,49.9,153.9,54.8,153.9,60.6z"/>
    </g>
</svg>
