<svg xmlns="http://www.w3.org/2000/svg" viewBox="0 0 300 300" width="100" height="100">
    <path fill-rule="evenodd" clip-rule="evenodd" d="M225,88.8c-58.9-48-175.6-22.1-174.4,60.9c1.2,82.7,113,109.6,174.4,62.6v-32.7c-31.7,23.4-90.8,14.7-90.8-29.3
    c0-44.6,55.7-55,90.8-30.1V88.8z M165.2,133.4h41.7v9.3h-14v28.3h-13.7v-28.3h-14V133.4z M186.2,113.2c4.2,0,7.7,3.4,7.7,7.7
    c0,4.2-3.4,7.7-7.7,7.7c-4.2,0-7.7-3.4-7.7-7.7C178.6,116.6,182,113.2,186.2,113.2z M212.9,133.4h22.8c5,0,8.7,1,11.2,3
    c2.5,2,3.7,4.9,3.7,8.5c0,3.8-1.4,6.8-4,8.9c-2.7,2.1-6.8,3.2-12.4,3.2h-7.5v13.9h-13.8V133.4z M226.7,149.4h3.4c2.7,0,4.5-0.4,5.6-1.2
    c1.1-0.8,1.6-1.8,1.6-3c0-1.2-0.5-2.2-1.4-3c-0.9-0.8-2.7-1.2-5.3-1.2h-3.9V149.4z"/>
</svg>
