<svg xmlns="http://www.w3.org/2000/svg" viewBox="0 0 300 300" width="100" height="100">
    <path fill-rule="evenodd" clip-rule="evenodd" d="M194.2,129c18.6,0,37.2,0,55.8,0v17.7h-14.3v23.6h-27.1v-23.6h-14.3V129L194.2,129z
    M84.6,195.4c-8.5,0-15.4-6.9-15.4-15.4v-45.5c0-15.6,12.6-28.2,28.2-28.2c15.6,0,28.2,12.6,28.2,28.2s-12.6,28.2-28.2,28.2
    c-2.5,0-4.9-0.3-7.2-0.9V145c2,1.4,4.5,2.2,7.1,2.2c7,0,12.7-5.7,12.7-12.7c0-7-5.7-12.7-12.7-12.7s-12.7,5.7-12.7,12.7V195.4z
    M221.2,92.4c-16.3-8.9-44.4-21.2-75.9-21.2C95.8,71.2,50,95.5,50,150.3c0,54.9,42.8,78.5,92.7,78.5c35.3,0,64.5-13.8,78.5-21.9
    v-31.4c-10.2,6-28.8,15.2-48.3,15.2c-55.5,0-53.4-80.3-1.7-80.5c19.4-0.1,38.3,7.7,50.1,13.7V92.4z"/>
</svg>
