<?xml version="1.0" standalone="no"?>
<!DOCTYPE svg PUBLIC "-//W3C//DTD SVG 1.1//EN" "http://www.w3.org/Graphics/SVG/1.1/DTD/svg11.dtd">
<svg width="224" height="50" version="1.1" xmlns="http://www.w3.org/2000/svg">
	<g id="bars" fill="black" stroke="none">
		<rect x="0" y="0" width="2" height="50" />
		<rect x="8" y="0" width="2" height="50" />
		<rect x="12" y="0" width="6" height="50" />
		<rect x="20" y="0" width="6" height="50" />
		<rect x="28" y="0" width="2" height="50" />
		<rect x="32" y="0" width="6" height="50" />
		<rect x="40" y="0" width="2" height="50" />
		<rect x="44" y="0" width="2" height="50" />
		<rect x="52" y="0" width="2" height="50" />
		<rect x="56" y="0" width="6" height="50" />
		<rect x="64" y="0" width="6" height="50" />
		<rect x="72" y="0" width="2" height="50" />
		<rect x="80" y="0" width="2" height="50" />
		<rect x="84" y="0" width="2" height="50" />
		<rect x="88" y="0" width="6" height="50" />
		<rect x="96" y="0" width="2" height="50" />
		<rect x="100" y="0" width="6" height="50" />
		<rect x="112" y="0" width="2" height="50" />
		<rect x="116" y="0" width="2" height="50" />
		<rect x="120" y="0" width="6" height="50" />
		<rect x="128" y="0" width="2" height="50" />
		<rect x="132" y="0" width="6" height="50" />
		<rect x="140" y="0" width="2" height="50" />
		<rect x="148" y="0" width="2" height="50" />
		<rect x="152" y="0" width="6" height="50" />
		<rect x="160" y="0" width="6" height="50" />
		<rect x="168" y="0" width="6" height="50" />
		<rect x="180" y="0" width="2" height="50" />
		<rect x="184" y="0" width="2" height="50" />
		<rect x="188" y="0" width="2" height="50" />
		<rect x="192" y="0" width="2" height="50" />
		<rect x="200" y="0" width="2" height="50" />
		<rect x="204" y="0" width="6" height="50" />
		<rect x="212" y="0" width="6" height="50" />
		<rect x="220" y="0" width="2" height="50" />
	</g>
</svg>
