<svg width="220px" height="122px" x="0px" y="0px" viewBox="0 0 220 122" xmlns="http://www.w3.org/2000/svg" version="1.1" style="transform: translate(0,0)"><rect x="0" y="0" width="220" height="122" style="fill:#ffffff;"/><g transform="translate(10, 10)" style="fill:#000000;"><rect x="0" y="0" width="2" height="80"/><rect x="4" y="0" width="2" height="80"/><rect x="8" y="0" width="8" height="80"/><rect x="18" y="0" width="4" height="80"/><rect x="24" y="0" width="2" height="80"/><rect x="28" y="0" width="2" height="80"/><rect x="36" y="0" width="4" height="80"/><rect x="42" y="0" width="2" height="80"/><rect x="48" y="0" width="2" height="80"/><rect x="54" y="0" width="4" height="80"/><rect x="60" y="0" width="2" height="80"/><rect x="68" y="0" width="2" height="80"/><rect x="72" y="0" width="2" height="80"/><rect x="78" y="0" width="2" height="80"/><rect x="82" y="0" width="6" height="80"/><rect x="90" y="0" width="2" height="80"/><rect x="94" y="0" width="2" height="80"/><rect x="100" y="0" width="2" height="80"/><rect x="108" y="0" width="2" height="80"/><rect x="112" y="0" width="2" height="80"/><rect x="120" y="0" width="2" height="80"/><rect x="126" y="0" width="2" height="80"/><rect x="130" y="0" width="2" height="80"/><rect x="140" y="0" width="2" height="80"/><rect x="144" y="0" width="2" height="80"/><rect x="148" y="0" width="2" height="80"/><rect x="152" y="0" width="4" height="80"/><rect x="162" y="0" width="2" height="80"/><rect x="166" y="0" width="2" height="80"/><rect x="174" y="0" width="4" height="80"/><rect x="180" y="0" width="2" height="80"/><rect x="184" y="0" width="2" height="80"/><rect x="188" y="0" width="8" height="80"/><rect x="198" y="0" width="2" height="80"/><text style="font: 20px monospace" text-anchor="middle" x="100" y="102">ABC-123</text></g></svg>