<?xml version="1.0" standalone="no"?>
<!DOCTYPE svg PUBLIC "-//W3C//DTD SVG 1.1//EN" "http://www.w3.org/Graphics/SVG/1.1/DTD/svg11.dtd">
<svg width="128" height="50" version="1.1" xmlns="http://www.w3.org/2000/svg">
	<g id="bars" fill="black" stroke="none">
		<rect x="0" y="0" width="2" height="50" />
		<rect x="4" y="0" width="4" height="50" />
		<rect x="12" y="0" width="2" height="50" />
		<rect x="16" y="0" width="4" height="50" />
		<rect x="22" y="0" width="2" height="50" />
		<rect x="26" y="0" width="4" height="50" />
		<rect x="32" y="0" width="2" height="50" />
		<rect x="38" y="0" width="2" height="50" />
		<rect x="42" y="0" width="4" height="50" />
		<rect x="48" y="0" width="4" height="50" />
		<rect x="56" y="0" width="2" height="50" />
		<rect x="60" y="0" width="2" height="50" />
		<rect x="64" y="0" width="2" height="50" />
		<rect x="68" y="0" width="4" height="50" />
		<rect x="74" y="0" width="4" height="50" />
		<rect x="80" y="0" width="4" height="50" />
		<rect x="86" y="0" width="4" height="50" />
		<rect x="92" y="0" width="2" height="50" />
		<rect x="96" y="0" width="2" height="50" />
		<rect x="102" y="0" width="2" height="50" />
		<rect x="106" y="0" width="4" height="50" />
		<rect x="112" y="0" width="2" height="50" />
		<rect x="116" y="0" width="4" height="50" />
		<rect x="124" y="0" width="2" height="50" />
	</g>
</svg>
