<?xml version="1.0" standalone="no"?>
<!DOCTYPE svg PUBLIC "-//W3C//DTD SVG 1.1//EN" "http://www.w3.org/Graphics/SVG/1.1/DTD/svg11.dtd">
<svg width="130" height="50" version="1.1" xmlns="http://www.w3.org/2000/svg">
	<g id="bars" fill="black" stroke="none">
		<rect x="0" y="0" width="2" height="50" />
		<rect x="4" y="0" width="2" height="50" />
		<rect x="8" y="0" width="2" height="50" />
		<rect x="14" y="0" width="2" height="50" />
		<rect x="18" y="0" width="4" height="50" />
		<rect x="24" y="0" width="4" height="50" />
		<rect x="30" y="0" width="2" height="50" />
		<rect x="36" y="0" width="2" height="50" />
		<rect x="42" y="0" width="4" height="50" />
		<rect x="50" y="0" width="2" height="50" />
		<rect x="54" y="0" width="2" height="50" />
		<rect x="58" y="0" width="4" height="50" />
		<rect x="64" y="0" width="2" height="50" />
		<rect x="70" y="0" width="2" height="50" />
		<rect x="74" y="0" width="4" height="50" />
		<rect x="82" y="0" width="2" height="50" />
		<rect x="86" y="0" width="4" height="50" />
		<rect x="92" y="0" width="2" height="50" />
		<rect x="98" y="0" width="4" height="50" />
		<rect x="104" y="0" width="4" height="50" />
		<rect x="110" y="0" width="2" height="50" />
		<rect x="114" y="0" width="2" height="50" />
		<rect x="120" y="0" width="4" height="50" />
		<rect x="126" y="0" width="2" height="50" />
	</g>
</svg>
