<?xml version="1.0" standalone="no"?>
<!DOCTYPE svg PUBLIC "-//W3C//DTD SVG 1.1//EN" "http://www.w3.org/Graphics/SVG/1.1/DTD/svg11.dtd">
<svg width="102" height="50" version="1.1" xmlns="http://www.w3.org/2000/svg">
	<g id="bars" fill="black" stroke="none">
		<rect x="0" y="0" width="2" height="50" />
		<rect x="4" y="0" width="2" height="50" />
		<rect x="8" y="0" width="4" height="50" />
		<rect x="14" y="0" width="2" height="50" />
		<rect x="20" y="0" width="2" height="50" />
		<rect x="24" y="0" width="2" height="50" />
		<rect x="28" y="0" width="4" height="50" />
		<rect x="36" y="0" width="4" height="50" />
		<rect x="42" y="0" width="4" height="50" />
		<rect x="48" y="0" width="2" height="50" />
		<rect x="54" y="0" width="2" height="50" />
		<rect x="58" y="0" width="2" height="50" />
		<rect x="64" y="0" width="4" height="50" />
		<rect x="70" y="0" width="2" height="50" />
		<rect x="76" y="0" width="4" height="50" />
		<rect x="84" y="0" width="2" height="50" />
		<rect x="88" y="0" width="2" height="50" />
		<rect x="92" y="0" width="4" height="50" />
		<rect x="98" y="0" width="2" height="50" />
	</g>
</svg>
