<svg width="146px" height="122px" x="0px" y="0px" viewBox="0 0 146 122" xmlns="http://www.w3.org/2000/svg" version="1.1" style="transform: translate(0,0)"><g transform="translate(10, 10)" style="fill:#000000;"><rect x="0" y="0" width="2" height="80"/><rect x="4" y="0" width="2" height="80"/><rect x="8" y="0" width="6" height="80"/><rect x="16" y="0" width="2" height="80"/><rect x="24" y="0" width="2" height="80"/><rect x="28" y="0" width="2" height="80"/><rect x="32" y="0" width="6" height="80"/><rect x="44" y="0" width="6" height="80"/><rect x="52" y="0" width="6" height="80"/><rect x="60" y="0" width="2" height="80"/><rect x="68" y="0" width="2" height="80"/><rect x="72" y="0" width="2" height="80"/><rect x="80" y="0" width="6" height="80"/><rect x="88" y="0" width="2" height="80"/><rect x="96" y="0" width="6" height="80"/><rect x="108" y="0" width="2" height="80"/><rect x="112" y="0" width="2" height="80"/><rect x="116" y="0" width="6" height="80"/><rect x="124" y="0" width="2" height="80"/><text style="font: 20px monospace" text-anchor="middle" x="63" y="102">123456</text></g></svg>