<svg width="290px" height="122px" x="0px" y="0px" viewBox="0 0 290 122" xmlns="http://www.w3.org/2000/svg" version="1.1" style="transform: translate(0,0)"><rect x="0" y="0" width="290" height="122" style="fill:#ffffff;"/><g transform="translate(10, 10)" style="fill:#000000;"><rect x="0" y="0" width="2" height="80"/><rect x="4" y="0" width="2" height="80"/><rect x="8" y="0" width="6" height="80"/><rect x="16" y="0" width="2" height="80"/><rect x="20" y="0" width="2" height="80"/><rect x="28" y="0" width="2" height="80"/><rect x="36" y="0" width="6" height="80"/><rect x="44" y="0" width="2" height="80"/><rect x="52" y="0" width="2" height="80"/><rect x="56" y="0" width="6" height="80"/><rect x="64" y="0" width="6" height="80"/><rect x="72" y="0" width="2" height="80"/><rect x="80" y="0" width="2" height="80"/><rect x="88" y="0" width="6" height="80"/><rect x="100" y="0" width="2" height="80"/><rect x="104" y="0" width="2" height="80"/><rect x="108" y="0" width="6" height="80"/><rect x="116" y="0" width="2" height="80"/><rect x="124" y="0" width="2" height="80"/><rect x="128" y="0" width="6" height="80"/><rect x="140" y="0" width="2" height="80"/><rect x="144" y="0" width="6" height="80"/><rect x="152" y="0" width="2" height="80"/><rect x="156" y="0" width="2" height="80"/><rect x="160" y="0" width="6" height="80"/><rect x="172" y="0" width="6" height="80"/><rect x="184" y="0" width="2" height="80"/><rect x="188" y="0" width="2" height="80"/><rect x="192" y="0" width="2" height="80"/><rect x="196" y="0" width="6" height="80"/><rect x="208" y="0" width="6" height="80"/><rect x="220" y="0" width="2" height="80"/><rect x="224" y="0" width="6" height="80"/><rect x="232" y="0" width="2" height="80"/><rect x="236" y="0" width="2" height="80"/><rect x="240" y="0" width="2" height="80"/><rect x="248" y="0" width="6" height="80"/><rect x="260" y="0" width="6" height="80"/><rect x="268" y="0" width="2" height="80"/><text style="font: 20px monospace" text-anchor="middle" x="135" y="102">10012345000017</text></g></svg>