<svg width="114px" height="122px" x="0px" y="0px" viewBox="0 0 114 122" xmlns="http://www.w3.org/2000/svg" version="1.1" style="transform: translate(0,0)"><g transform="translate(10, 10)" style="fill:#000000;"><rect x="0" y="0" width="6" height="80"/><rect x="10" y="0" width="2" height="80"/><rect x="16" y="0" width="2" height="80"/><rect x="22" y="0" width="2" height="80"/><rect x="28" y="0" width="2" height="80"/><rect x="34" y="0" width="2" height="80"/><rect x="40" y="0" width="2" height="80"/><rect x="46" y="0" width="6" height="80"/><rect x="56" y="0" width="6" height="80"/><rect x="66" y="0" width="6" height="80"/><rect x="76" y="0" width="2" height="80"/><rect x="82" y="0" width="6" height="80"/><rect x="92" y="0" width="2" height="80"/><text style="font: 20px monospace" text-anchor="middle" x="47" y="102">12345</text></g></svg>