<?xml version="1.0" standalone="no"?>
<!DOCTYPE svg PUBLIC "-//W3C//DTD SVG 1.1//EN" "http://www.w3.org/Graphics/SVG/1.1/DTD/svg11.dtd">
<svg width="126" height="50" version="1.1" xmlns="http://www.w3.org/2000/svg">
	<g id="bars" fill="black" stroke="none">
		<rect x="0" y="0" width="2" height="50" />
		<rect x="4" y="25" width="2" height="25" />
		<rect x="8" y="25" width="2" height="25" />
		<rect x="12" y="25" width="2" height="25" />
		<rect x="16" y="0" width="2" height="50" />
		<rect x="20" y="0" width="2" height="50" />
		<rect x="24" y="25" width="2" height="25" />
		<rect x="28" y="25" width="2" height="25" />
		<rect x="32" y="0" width="2" height="50" />
		<rect x="36" y="25" width="2" height="25" />
		<rect x="40" y="0" width="2" height="50" />
		<rect x="44" y="25" width="2" height="25" />
		<rect x="48" y="25" width="2" height="25" />
		<rect x="52" y="0" width="2" height="50" />
		<rect x="56" y="0" width="2" height="50" />
		<rect x="60" y="25" width="2" height="25" />
		<rect x="64" y="25" width="2" height="25" />
		<rect x="68" y="0" width="2" height="50" />
		<rect x="72" y="25" width="2" height="25" />
		<rect x="76" y="25" width="2" height="25" />
		<rect x="80" y="0" width="2" height="50" />
		<rect x="84" y="25" width="2" height="25" />
		<rect x="88" y="0" width="2" height="50" />
		<rect x="92" y="25" width="2" height="25" />
		<rect x="96" y="0" width="2" height="50" />
		<rect x="100" y="25" width="2" height="25" />
		<rect x="104" y="25" width="2" height="25" />
		<rect x="108" y="0" width="2" height="50" />
		<rect x="112" y="25" width="2" height="25" />
		<rect x="116" y="0" width="2" height="50" />
		<rect x="120" y="25" width="2" height="25" />
		<rect x="124" y="0" width="2" height="50" />
	</g>
</svg>
