<?xml version="1.0" standalone="no"?>
<!DOCTYPE svg PUBLIC "-//W3C//DTD SVG 1.1//EN" "http://www.w3.org/Graphics/SVG/1.1/DTD/svg11.dtd">
<svg width="190" height="50" version="1.1" xmlns="http://www.w3.org/2000/svg">
	<g id="bars" fill="black" stroke="none">
		<rect x="0" y="0" width="2" height="50" />
		<rect x="4" y="0" width="2" height="50" />
		<rect x="10" y="0" width="4" height="50" />
		<rect x="18" y="0" width="2" height="50" />
		<rect x="24" y="0" width="2" height="50" />
		<rect x="30" y="0" width="4" height="50" />
		<rect x="36" y="0" width="8" height="50" />
		<rect x="46" y="0" width="2" height="50" />
		<rect x="50" y="0" width="2" height="50" />
		<rect x="58" y="0" width="4" height="50" />
		<rect x="64" y="0" width="4" height="50" />
		<rect x="74" y="0" width="2" height="50" />
		<rect x="78" y="0" width="2" height="50" />
		<rect x="82" y="0" width="8" height="50" />
		<rect x="92" y="0" width="2" height="50" />
		<rect x="96" y="0" width="2" height="50" />
		<rect x="100" y="0" width="2" height="50" />
		<rect x="108" y="0" width="2" height="50" />
		<rect x="114" y="0" width="2" height="50" />
		<rect x="120" y="0" width="2" height="50" />
		<rect x="128" y="0" width="6" height="50" />
		<rect x="136" y="0" width="2" height="50" />
		<rect x="142" y="0" width="6" height="50" />
		<rect x="152" y="0" width="2" height="50" />
		<rect x="156" y="0" width="4" height="50" />
		<rect x="164" y="0" width="4" height="50" />
		<rect x="170" y="0" width="4" height="50" />
		<rect x="176" y="0" width="4" height="50" />
		<rect x="184" y="0" width="2" height="50" />
		<rect x="188" y="0" width="2" height="50" />
	</g>
</svg>
